<svg width="13" height="12" viewBox="0 0 13 12" fill="none" xmlns="http://www.w3.org/2000/svg">
<path d="M6.6875 3.20508C8.28711 3.20508 9.60742 4.52539 9.60742 6.125C9.60742 7.75 8.28711 9.04492 6.6875 9.04492C5.0625 9.04492 3.76758 7.75 3.76758 6.125C3.76758 4.52539 5.0625 3.20508 6.6875 3.20508ZM6.6875 8.0293C7.72852 8.0293 8.56641 7.19141 8.56641 6.125C8.56641 5.08398 7.72852 4.24609 6.6875 4.24609C5.62109 4.24609 4.7832 5.08398 4.7832 6.125C4.7832 7.19141 5.64648 8.0293 6.6875 8.0293ZM10.3945 3.10352C10.3945 3.48438 10.0898 3.78906 9.70898 3.78906C9.32812 3.78906 9.02344 3.48438 9.02344 3.10352C9.02344 2.72266 9.32812 2.41797 9.70898 2.41797C10.0898 2.41797 10.3945 2.72266 10.3945 3.10352ZM12.3242 3.78906C12.375 4.72852 12.375 7.54688 12.3242 8.48633C12.2734 9.40039 12.0703 10.1875 11.4102 10.873C10.75 11.5332 9.9375 11.7363 9.02344 11.7871C8.08398 11.8379 5.26562 11.8379 4.32617 11.7871C3.41211 11.7363 2.625 11.5332 1.93945 10.873C1.2793 10.1875 1.07617 9.40039 1.02539 8.48633C0.974609 7.54688 0.974609 4.72852 1.02539 3.78906C1.07617 2.875 1.2793 2.0625 1.93945 1.40234C2.625 0.742188 3.41211 0.539062 4.32617 0.488281C5.26562 0.4375 8.08398 0.4375 9.02344 0.488281C9.9375 0.539062 10.75 0.742188 11.4102 1.40234C12.0703 2.0625 12.2734 2.875 12.3242 3.78906ZM11.1055 9.47656C11.4102 8.74023 11.334 6.96289 11.334 6.125C11.334 5.3125 11.4102 3.53516 11.1055 2.77344C10.9023 2.29102 10.5215 1.88477 10.0391 1.70703C9.27734 1.40234 7.5 1.47852 6.6875 1.47852C5.84961 1.47852 4.07227 1.40234 3.33594 1.70703C2.82812 1.91016 2.44727 2.29102 2.24414 2.77344C1.93945 3.53516 2.01562 5.3125 2.01562 6.125C2.01562 6.96289 1.93945 8.74023 2.24414 9.47656C2.44727 9.98438 2.82812 10.3652 3.33594 10.5684C4.07227 10.873 5.84961 10.7969 6.6875 10.7969C7.5 10.7969 9.27734 10.873 10.0391 10.5684C10.5215 10.3652 10.9277 9.98438 11.1055 9.47656Z" fill="#686868"/>
</svg>
