<svg width="15" height="9" viewBox="0 0 15 9" fill="none" xmlns="http://www.w3.org/2000/svg">
<path d="M13.8379 0.621094C13.6348 1.48438 11.8066 4.07422 11.8066 4.07422C11.6543 4.32812 11.5781 4.45508 11.8066 4.73438C11.9082 4.86133 13.8125 6.68945 14.0918 7.55273C14.2188 7.98438 14.0156 8.1875 13.584 8.1875H12.0859C11.5273 8.1875 11.3496 7.75586 10.334 6.74023C9.44531 5.87695 9.06445 5.75 8.83594 5.75C8.37891 5.75 8.45508 5.92773 8.45508 7.62891C8.45508 7.98438 8.32812 8.1875 7.38867 8.1875C5.81445 8.1875 4.0625 7.24805 2.81836 5.4707C0.964844 2.85547 0.457031 0.900391 0.457031 0.494141C0.457031 0.265625 0.558594 0.0625 0.964844 0.0625H2.46289C2.84375 0.0625 2.99609 0.240234 3.14844 0.646484C3.88477 2.7793 5.10352 4.6582 5.61133 4.6582C5.81445 4.6582 5.89062 4.55664 5.89062 4.07422V1.86523C5.83984 0.849609 5.30664 0.773438 5.30664 0.417969C5.30664 0.240234 5.43359 0.0625 5.6875 0.0625H8.02344C8.35352 0.0625 8.45508 0.240234 8.45508 0.621094V3.5918C8.45508 3.89648 8.60742 4.02344 8.68359 4.02344C8.88672 4.02344 9.03906 3.89648 9.39453 3.56641C10.4609 2.34766 11.2227 0.494141 11.2227 0.494141C11.3242 0.265625 11.502 0.0625 11.8828 0.0625H13.3809C13.8379 0.0625 13.9141 0.316406 13.8379 0.621094Z" fill="#686868"/>
</svg>
